<mxfile host="app.diagrams.net" modified="2023-03-09T00:25:20.896Z" agent="5.0 (Windows NT 10.0; Win64; x64) AppleWebKit/537.36 (KHTML, like Gecko) Chrome/110.0.0.0 Safari/537.36" etag="rpmt0Oro2u8n8LyBrMFr" version="21.0.2" type="github">
  <diagram name="PÃ¡gina-1" id="1EG0DxgAQsjiDLSlLeOk">
    <mxGraphModel dx="1877" dy="619" grid="1" gridSize="10" guides="1" tooltips="1" connect="1" arrows="1" fold="1" page="1" pageScale="1" pageWidth="827" pageHeight="1169" math="0" shadow="0">
      <root>
        <mxCell id="0" />
        <mxCell id="1" parent="0" />
        <mxCell id="j4MfL8nKJJl6lGdlXzIS-10" style="edgeStyle=orthogonalEdgeStyle;rounded=0;orthogonalLoop=1;jettySize=auto;html=1;" edge="1" parent="1" source="j4MfL8nKJJl6lGdlXzIS-1" target="j4MfL8nKJJl6lGdlXzIS-9">
          <mxGeometry relative="1" as="geometry" />
        </mxCell>
        <mxCell id="j4MfL8nKJJl6lGdlXzIS-1" value="Cliente" style="shape=umlActor;verticalLabelPosition=bottom;verticalAlign=top;html=1;outlineConnect=0;" vertex="1" parent="1">
          <mxGeometry x="-60" y="310" width="30" height="60" as="geometry" />
        </mxCell>
        <mxCell id="j4MfL8nKJJl6lGdlXzIS-7" style="edgeStyle=orthogonalEdgeStyle;rounded=0;orthogonalLoop=1;jettySize=auto;html=1;" edge="1" parent="1" source="j4MfL8nKJJl6lGdlXzIS-2" target="j4MfL8nKJJl6lGdlXzIS-4">
          <mxGeometry relative="1" as="geometry" />
        </mxCell>
        <mxCell id="j4MfL8nKJJl6lGdlXzIS-2" value="Destino" style="ellipse;whiteSpace=wrap;html=1;" vertex="1" parent="1">
          <mxGeometry x="30" y="40" width="120" height="80" as="geometry" />
        </mxCell>
        <mxCell id="j4MfL8nKJJl6lGdlXzIS-6" style="edgeStyle=orthogonalEdgeStyle;rounded=0;orthogonalLoop=1;jettySize=auto;html=1;" edge="1" parent="1" source="j4MfL8nKJJl6lGdlXzIS-3" target="j4MfL8nKJJl6lGdlXzIS-2">
          <mxGeometry relative="1" as="geometry" />
        </mxCell>
        <mxCell id="j4MfL8nKJJl6lGdlXzIS-3" value="Local origem" style="ellipse;whiteSpace=wrap;html=1;" vertex="1" parent="1">
          <mxGeometry x="30" y="170" width="120" height="80" as="geometry" />
        </mxCell>
        <mxCell id="j4MfL8nKJJl6lGdlXzIS-13" style="edgeStyle=orthogonalEdgeStyle;rounded=0;orthogonalLoop=1;jettySize=auto;html=1;" edge="1" parent="1" source="j4MfL8nKJJl6lGdlXzIS-4" target="j4MfL8nKJJl6lGdlXzIS-12">
          <mxGeometry relative="1" as="geometry" />
        </mxCell>
        <mxCell id="j4MfL8nKJJl6lGdlXzIS-4" value="Data viagem" style="ellipse;whiteSpace=wrap;html=1;" vertex="1" parent="1">
          <mxGeometry x="250" y="40" width="120" height="80" as="geometry" />
        </mxCell>
        <mxCell id="j4MfL8nKJJl6lGdlXzIS-11" style="edgeStyle=orthogonalEdgeStyle;rounded=0;orthogonalLoop=1;jettySize=auto;html=1;entryX=0.5;entryY=1;entryDx=0;entryDy=0;" edge="1" parent="1" source="j4MfL8nKJJl6lGdlXzIS-9" target="j4MfL8nKJJl6lGdlXzIS-3">
          <mxGeometry relative="1" as="geometry" />
        </mxCell>
        <object label="Trecho" id="j4MfL8nKJJl6lGdlXzIS-9">
          <mxCell style="ellipse;whiteSpace=wrap;html=1;" vertex="1" parent="1">
            <mxGeometry x="30" y="300" width="120" height="80" as="geometry" />
          </mxCell>
        </object>
        <mxCell id="j4MfL8nKJJl6lGdlXzIS-12" value="Poltrona" style="ellipse;whiteSpace=wrap;html=1;" vertex="1" parent="1">
          <mxGeometry x="440" y="40" width="120" height="80" as="geometry" />
        </mxCell>
      </root>
    </mxGraphModel>
  </diagram>
</mxfile>
